<?xml version="1.0" encoding="utf-8"?>
<!-- Generator: Adobe Illustrator 21.1.0, SVG Export Plug-In . SVG Version: 6.00 Build 0)  -->
<svg version="1.1" xmlns="http://www.w3.org/2000/svg" xmlns:xlink="http://www.w3.org/1999/xlink" x="0px" y="0px"
	 viewBox="0 0 100 160" style="enable-background:new 0 0 100 160;" xml:space="preserve">
<style type="text/css">
	.st0{fill:none;stroke:#000000;stroke-miterlimit:10;}
	.st1{fill:#FFFFFF;}
</style>
<g id="leg_x5F_2">
	<g>
		<line class="st0" x1="50.3" y1="100.8" x2="32.4" y2="122.5"/>
	</g>
</g>
<g id="leg_x5F_1">
	<g>
		<line class="st0" x1="50.3" y1="100.8" x2="68.2" y2="122.5"/>
	</g>
</g>
<g id="arm_x5F_2">
	<line class="st0" x1="50.3" y1="72.6" x2="76.5" y2="63.7"/>
</g>
<g id="arm_x5F_1">
	<line class="st0" x1="50.3" y1="72.6" x2="24.1" y2="63.7"/>
</g>
<g id="body">
	<g>
		<line class="st0" x1="50.3" y1="63.7" x2="50.3" y2="100.8"/>
	</g>
</g>
<g id="head">
	<g>
		<path class="st1" d="M50,63.6c-7.2,0-13.1-5.9-13.1-13.1c0-7.2,5.9-13.1,13.1-13.1S63,43.4,63,50.6C63,57.8,57.2,63.6,50,63.6z"/>
		<path d="M50,38c6.9,0,12.6,5.6,12.6,12.6S56.9,63.1,50,63.1s-12.6-5.6-12.6-12.6S43,38,50,38 M50,37c-7.5,0-13.6,6.1-13.6,13.6
			c0,7.5,6.1,13.6,13.6,13.6s13.6-6.1,13.6-13.6C63.5,43.1,57.5,37,50,37L50,37z"/>
	</g>
</g>
<g id="Stand">
	<polyline class="st0" points="49.5,37.5 49.5,15.5 91.5,15.5 91.5,147.5 14.5,147.5 	"/>
</g>
</svg>
